<?xml version="1.0" standalone="no"?>
<!DOCTYPE svg PUBLIC "-//W3C//DTD SVG 20010904//EN"
 "http://www.w3.org/TR/2001/REC-SVG-20010904/DTD/svg10.dtd">
<svg version="1.0" xmlns="http://www.w3.org/2000/svg"
 width="512.000000pt" height="512.000000pt" viewBox="0 0 512.000000 512.000000"
 preserveAspectRatio="xMidYMid meet">
<metadata>
Created by potrace 1.14, written by Peter Selinger 2001-2017
</metadata>
<g transform="translate(0.000000,512.000000) scale(0.100000,-0.100000)"
fill="#000000" stroke="none">
<path d="M1141 4624 c-116 -31 -195 -77 -281 -164 -66 -65 -109 -138 -142
-235 l-23 -70 0 -1490 0 -1490 24 -70 c64 -186 185 -310 371 -381 l75 -29 850
-3 851 -3 19 -35 c27 -50 97 -112 163 -142 l57 -27 490 -3 c344 -3 506 0 543
8 140 31 254 150 282 295 8 41 10 177 8 425 -3 354 -4 367 -26 422 -23 57 -94
140 -156 183 -26 19 -28 25 -32 105 -4 109 -18 168 -60 257 -59 124 -192 247
-316 291 l-47 16 -3 841 -3 840 -24 65 c-57 160 -162 281 -302 348 -46 23
-111 45 -143 51 -40 7 -400 11 -1090 10 -868 0 -1040 -3 -1085 -15z m2693
-2539 c36 -46 56 -107 56 -166 l0 -49 -48 0 -48 0 -1 125 c0 69 3 125 7 125 4
0 20 -16 34 -35z"/>
</g>
</svg>
